<svg width="100" height="100" viewBox="0 0 100 100" fill="none" xmlns="http://www.w3.org/2000/svg">
<path d="M89.2344 34.8985L51.7344 9.89851C51.2208 9.55589 50.6173 9.37305 50 9.37305C49.3827 9.37305 48.7792 9.55589 48.2656 9.89851L10.7656 34.8985C10.3375 35.1841 9.98662 35.571 9.74402 36.0249C9.50143 36.4787 9.37467 36.9855 9.375 37.5001V78.1251C9.375 79.7827 10.0335 81.3724 11.2056 82.5445C12.3777 83.7166 13.9674 84.3751 15.625 84.3751H84.375C86.0326 84.3751 87.6223 83.7166 88.7944 82.5445C89.9665 81.3724 90.625 79.7827 90.625 78.1251V37.5001C90.6253 36.9855 90.4986 36.4787 90.256 36.0249C90.0134 35.571 89.6625 35.1841 89.2344 34.8985ZM37.7812 59.3751L15.625 75.0001V43.5665L37.7812 59.3751ZM44.1758 62.5001H55.8242L77.9453 78.1251H22.0547L44.1758 62.5001ZM62.2188 59.3751L84.375 43.5665V75.0001L62.2188 59.3751Z" fill="#524F5B"/>
<path d="M89.2344 34.8985L51.7344 9.89851C51.2208 9.55589 50.6173 9.37305 50 9.37305C49.3827 9.37305 48.7792 9.55589 48.2656 9.89851L10.7656 34.8985C10.3375 35.1841 9.98662 35.571 9.74402 36.0249C9.50143 36.4787 9.37467 36.9855 9.375 37.5001V78.1251C9.375 79.7827 10.0335 81.3724 11.2056 82.5445C12.3777 83.7166 13.9674 84.3751 15.625 84.3751H84.375C86.0326 84.3751 87.6223 83.7166 88.7944 82.5445C89.9665 81.3724 90.625 79.7827 90.625 78.1251V37.5001C90.6253 36.9855 90.4986 36.4787 90.256 36.0249C90.0134 35.571 89.6625 35.1841 89.2344 34.8985ZM37.7812 59.3751L15.625 75.0001V43.5665L37.7812 59.3751ZM44.1758 62.5001H55.8242L77.9453 78.1251H22.0547L44.1758 62.5001ZM62.2188 59.3751L84.375 43.5665V75.0001L62.2188 59.3751Z" fill="url(#paint0_linear_37019_1493)"/>
<defs>
<linearGradient id="paint0_linear_37019_1493" x1="50" y1="9.37305" x2="50" y2="145.604" gradientUnits="userSpaceOnUse">
<stop stop-color="#2F2E33"/>
<stop offset="1" stop-color="#524F5B"/>
</linearGradient>
</defs>
</svg>
