<svg width="100" height="100" viewBox="0 0 100 100" fill="none" xmlns="http://www.w3.org/2000/svg">
<path d="M84.375 15.625H15.625C13.9674 15.625 12.3777 16.2835 11.2056 17.4556C10.0335 18.6277 9.375 20.2174 9.375 21.875V78.125C9.375 79.7826 10.0335 81.3723 11.2056 82.5444C12.3777 83.7165 13.9674 84.375 15.625 84.375H84.375C86.0326 84.375 87.6223 83.7165 88.7944 82.5444C89.9665 81.3723 90.625 79.7826 90.625 78.125V21.875C90.625 20.2174 89.9665 18.6277 88.7944 17.4556C87.6223 16.2835 86.0326 15.625 84.375 15.625ZM78.125 68.75C78.9538 68.75 79.7487 69.0792 80.3347 69.6653C80.9208 70.2513 81.25 71.0462 81.25 71.875C81.25 72.7038 80.9208 73.4987 80.3347 74.0847C79.7487 74.6708 78.9538 75 78.125 75H21.875C21.0462 75 20.2513 74.6708 19.6653 74.0847C19.0792 73.4987 18.75 72.7038 18.75 71.875V28.125C18.75 27.2962 19.0792 26.5013 19.6653 25.9153C20.2513 25.3292 21.0462 25 21.875 25C22.7038 25 23.4987 25.3292 24.0847 25.9153C24.6708 26.5013 25 27.2962 25 28.125V52.7031L38.625 41.3477C39.1427 40.9162 39.7861 40.6637 40.4591 40.6278C41.1321 40.5919 41.7987 40.7745 42.3594 41.1484L59.1562 52.3555L76.1133 38.2227C76.7504 37.6922 77.5722 37.4366 78.3978 37.5121C79.2234 37.5875 79.9852 37.9879 80.5156 38.625C81.0461 39.2621 81.3017 40.0839 81.2262 40.9095C81.1507 41.7351 80.7504 42.4969 80.1133 43.0273L61.3633 58.6523C60.8455 59.0838 60.2022 59.3363 59.5292 59.3722C58.8562 59.4081 58.1896 59.2255 57.6289 58.8516L40.832 47.6445L25 60.8398V68.75H78.125Z" fill="url(#paint0_linear_37019_1484)"/>
<defs>
<linearGradient id="paint0_linear_37019_1484" x1="50" y1="15.625" x2="50" y2="140.5" gradientUnits="userSpaceOnUse">
<stop stop-color="#2F2E33"/>
<stop offset="1" stop-color="#524F5B"/>
</linearGradient>
</defs>
</svg>
