<svg width="250" height="64" viewBox="0 0 250 64" fill="none" xmlns="http://www.w3.org/2000/svg">
<path d="M45.0949 17.7028C46.9757 15.8432 50.0254 15.8432 51.9062 17.7028C53.7871 19.5623 53.7871 22.5775 51.9062 24.437L30.8187 45.2855C30.8187 45.2855 29.9653 42.3127 28.3709 40.7364C26.7765 39.1601 24.0078 38.5517 24.0078 38.5517L45.0949 17.7028Z" fill="white"/>
<ellipse cx="49.5215" cy="41.6793" rx="5.12897" ry="5.07093" fill="#00A200"/>
<path d="M223.507 20.9077H230.082L221.162 36.3187V43.1832H214.265V36.3187L205.023 20.9077H212.288L217.392 30.6816H218.219L223.507 20.9077Z" fill="white"/>
<path d="M203.692 26.4084H192.196V31.1817H201.531V36.3641H192.196V43.1832H185.851V20.9077H203.692V26.4084Z" fill="white"/>
<path d="M172.373 43.1832L172.235 20.9077H179.316L179.224 43.1832H172.373Z" fill="white"/>
<path d="M161.375 43.1832L156.088 35.364H153.099V43.1832H146.202V20.9077H153.099V29.5451H155.766L160.318 20.8622L168.043 20.9077L161.008 31.6817L169.192 43.1832H161.375Z" fill="white"/>
<path d="M131.218 43.5014C128.398 43.5014 125.716 42.774 123.172 41.3193L125.057 36.8642C127.019 37.8037 128.858 38.2735 130.575 38.2735C133.088 38.2735 134.345 37.6673 134.345 36.4551C134.345 35.9701 134.084 35.6216 133.563 35.4095C133.073 35.1973 132.153 34.9549 130.805 34.6821C125.655 33.9244 123.08 31.6363 123.08 27.8176C123.08 25.3628 123.907 23.5292 125.563 22.3169C127.218 21.1047 129.471 20.4985 132.322 20.4985C135.173 20.4985 137.748 21.1653 140.047 22.4988L138.253 26.9993C136.629 26.1811 134.82 25.7568 132.828 25.7265C131.663 25.6961 130.743 25.8477 130.069 26.1811C129.425 26.4841 129.103 26.9084 129.103 27.4539C129.103 27.9692 129.348 28.348 129.839 28.5904C130.329 28.8329 131.218 29.1057 132.506 29.4087C135.51 30.0452 137.61 30.8331 138.805 31.7727C140.031 32.7122 140.644 34.1366 140.644 36.0459C140.644 37.4097 140.353 38.6068 139.771 39.6373C139.188 40.6374 138.407 41.4102 137.426 41.9557C136.445 42.5013 135.433 42.8952 134.391 43.1377C133.379 43.3802 132.322 43.5014 131.218 43.5014Z" fill="white"/>
<path d="M114.668 43.1832L112.921 38.6826H102.483L100.782 43.1832H94.5748L103.219 20.9077H112.461L121.289 43.1832H114.668ZM104.323 33.9547H111.036L107.771 25.5446H107.587L104.323 33.9547Z" fill="white"/>
<path d="M94.8309 20.9077V26.3174H88.3016V43.1832H81.2666V26.3174H74.6914V20.9077H94.8309Z" fill="white"/>
</svg>
