<?xml version="1.0" standalone="no"?>
<!DOCTYPE svg PUBLIC "-//W3C//DTD SVG 20010904//EN"
 "http://www.w3.org/TR/2001/REC-SVG-20010904/DTD/svg10.dtd">
<svg version="1.0" xmlns="http://www.w3.org/2000/svg"
 width="400.000000pt" height="400.000000pt" viewBox="0 0 400.000000 400.000000"
 preserveAspectRatio="xMidYMid meet">

<g transform="translate(0.000000,400.000000) scale(0.100000,-0.100000)"
fill="#000000" stroke="none">
<path d="M1960 3411 c-261 -38 -394 -127 -475 -320 -20 -47 -43 -103 -52 -123
-9 -21 -23 -38 -32 -38 -47 0 -211 -24 -314 -45 -190 -39 -258 -90 -260 -195
-1 -65 33 -116 104 -155 l54 -30 182 0 181 0 -27 -35 c-100 -130 -204 -328
-299 -567 -79 -197 -124 -361 -166 -608 -19 -110 -46 -259 -60 -332 -22 -116
-66 -457 -66 -513 0 -18 7 -20 55 -20 65 0 57 -19 80 205 9 88 26 210 37 270
11 61 33 175 47 255 21 114 30 144 42 140 7 -2 73 -6 146 -8 242 -7 463 57
634 183 33 25 70 45 81 45 26 0 68 23 96 53 27 28 38 81 24 117 -8 22 -6 27
27 45 40 23 49 60 19 78 -12 8 -26 5 -57 -16 -22 -15 -43 -27 -46 -27 -3 0 -5
19 -5 43 0 51 -18 81 -46 75 -16 -3 -19 -12 -18 -61 1 -43 -2 -57 -13 -57 -47
0 -93 -75 -93 -152 0 -34 -6 -46 -37 -76 -112 -105 -443 -193 -618 -164 -38 6
-74 17 -81 24 -11 11 -8 36 20 143 91 348 292 769 439 918 158 160 304 201
717 202 237 0 649 -19 706 -33 38 -9 81 -44 128 -107 29 -38 36 -54 31 -74 -7
-28 -39 -67 -68 -82 -46 -25 -348 -60 -637 -74 -161 -8 -508 10 -576 30 -27 7
-68 19 -91 26 -38 12 -44 11 -63 -6 -54 -49 3 -99 151 -132 130 -30 897 -22
1059 11 3 1 6 -28 7 -64 6 -136 25 -343 53 -575 37 -305 50 -526 50 -876 l0
-279 54 0 54 0 8 68 c4 37 2 234 -4 437 -10 315 -16 411 -46 650 -43 346 -62
615 -46 644 6 12 16 21 23 21 20 0 90 40 120 69 41 37 70 99 70 148 0 56 -45
125 -140 213 -45 41 -72 73 -68 80 27 44 -21 235 -86 347 -46 79 -171 201
-239 235 -30 16 -100 40 -155 54 -134 35 -334 41 -515 15z m518 -417 c78 -7
116 -27 133 -70 29 -78 -82 -119 -256 -94 -98 14 -135 36 -135 80 0 60 73 105
155 95 17 -2 63 -7 103 -11z"/>
<path d="M2066 2574 c-9 -8 -16 -28 -16 -44 0 -39 50 -68 87 -51 62 28 46 111
-22 111 -18 0 -41 -7 -49 -16z"/>
<path d="M2548 2573 c-28 -32 -30 -58 -7 -86 39 -51 119 -25 119 38 0 57 -76
89 -112 48z"/>
</g>
</svg>
