<svg width="24" height="24" viewBox="0 0 24 24" fill="none" xmlns="http://www.w3.org/2000/svg">
<path d="M22.477 8.51347C22.477 8.52379 22.477 8.53316 22.4704 8.54347L20.3442 18.2813C20.2787 18.6242 20.0957 18.9335 19.8267 19.156C19.5577 19.3784 19.2195 19.5001 18.8704 19.5H5.12948C4.78056 19.4999 4.44259 19.3781 4.17377 19.1557C3.90495 18.9332 3.72209 18.624 3.65667 18.2813L1.53042 8.54347C1.53042 8.53316 1.52573 8.52379 1.52385 8.51347C1.46566 8.19107 1.51462 7.85848 1.66325 7.56652C1.81189 7.27456 2.05202 7.03929 2.34695 6.89665C2.64189 6.75402 2.97541 6.71187 3.29656 6.77664C3.61771 6.84141 3.90882 7.00955 4.12542 7.25535L7.28198 10.6575L10.6382 3.13035C10.6384 3.12723 10.6384 3.1241 10.6382 3.12097C10.7582 2.86067 10.9503 2.64021 11.1917 2.48568C11.4331 2.33115 11.7138 2.24902 12.0004 2.24902C12.2871 2.24902 12.5677 2.33115 12.8091 2.48568C13.0505 2.64021 13.2426 2.86067 13.3626 3.12097C13.3624 3.1241 13.3624 3.12723 13.3626 3.13035L16.7189 10.6575L19.8754 7.25535C20.0925 7.01137 20.3832 6.84488 20.7035 6.78117C21.0237 6.71746 21.3561 6.76 21.6499 6.90233C21.9438 7.04466 22.1833 7.27902 22.3319 7.5698C22.4804 7.86058 22.5301 8.19191 22.4732 8.51347H22.477Z" fill="black"/>
</svg>
