<svg width="24" height="24" viewBox="0 0 24 24" fill="none" xmlns="http://www.w3.org/2000/svg">
<path d="M21 11.2498V20.2498C21 20.4487 20.921 20.6395 20.7803 20.7801C20.6397 20.9208 20.4489 20.9998 20.25 20.9998H15C14.8011 20.9998 14.6103 20.9208 14.4697 20.7801C14.329 20.6395 14.25 20.4487 14.25 20.2498V15.3748C14.25 15.2753 14.2105 15.18 14.1402 15.1096C14.0698 15.0393 13.9745 14.9998 13.875 14.9998H10.125C10.0255 14.9998 9.93016 15.0393 9.85983 15.1096C9.78951 15.18 9.75 15.2753 9.75 15.3748V20.2498C9.75 20.4487 9.67098 20.6395 9.53033 20.7801C9.38968 20.9208 9.19891 20.9998 9 20.9998H3.75C3.55109 20.9998 3.36032 20.9208 3.21967 20.7801C3.07902 20.6395 3 20.4487 3 20.2498V11.2498C3.00018 10.852 3.15834 10.4706 3.43969 10.1895L10.9397 2.68948C11.221 2.40839 11.6023 2.25049 12 2.25049C12.3977 2.25049 12.779 2.40839 13.0603 2.68948L20.5603 10.1895C20.8417 10.4706 20.9998 10.852 21 11.2498Z" fill="black"/>
</svg>
