<svg width="24" height="24" viewBox="0 0 24 24" fill="none" xmlns="http://www.w3.org/2000/svg">
<path d="M21 4.5H3C2.60218 4.5 2.22064 4.65804 1.93934 4.93934C1.65804 5.22064 1.5 5.60218 1.5 6V18C1.5 18.3978 1.65804 18.7794 1.93934 19.0607C2.22064 19.342 2.60218 19.5 3 19.5H21C21.3978 19.5 21.7794 19.342 22.0607 19.0607C22.342 18.7794 22.5 18.3978 22.5 18V6C22.5 5.60218 22.342 5.22064 22.0607 4.93934C21.7794 4.65804 21.3978 4.5 21 4.5ZM19.1794 13.3791C19.2373 13.4591 19.2789 13.5497 19.3018 13.6458C19.3247 13.7419 19.3284 13.8416 19.3128 13.9391C19.2972 14.0367 19.2625 14.1302 19.2107 14.2143C19.1589 14.2985 19.0911 14.3716 19.0111 14.4295C18.9311 14.4875 18.8404 14.5291 18.7443 14.5519C18.6482 14.5748 18.5486 14.5786 18.451 14.563C18.3535 14.5473 18.26 14.5126 18.1758 14.4609C18.0917 14.4091 18.0186 14.3413 17.9606 14.2612L17.25 13.2759L16.5347 14.2612C16.4177 14.4229 16.2413 14.5314 16.0443 14.563C15.8473 14.5945 15.6458 14.5465 15.4842 14.4295C15.3226 14.3125 15.2141 14.1361 15.1825 13.9391C15.151 13.7421 15.199 13.5407 15.3159 13.3791L16.0322 12.3947L14.8734 12.0197C14.7798 11.9889 14.6932 11.94 14.6184 11.8757C14.5437 11.8115 14.4824 11.7331 14.4379 11.6451C14.3482 11.4675 14.3327 11.2614 14.3948 11.0723C14.4256 10.9787 14.4745 10.8921 14.5388 10.8173C14.6031 10.7426 14.6814 10.6813 14.7694 10.6368C14.9471 10.5471 15.1531 10.5316 15.3422 10.5938L16.5 10.9688V9.75C16.5 9.55109 16.579 9.36032 16.7197 9.21967C16.8603 9.07902 17.0511 9 17.25 9C17.4489 9 17.6397 9.07902 17.7803 9.21967C17.921 9.36032 18 9.55109 18 9.75V10.9688L19.1578 10.5938C19.2514 10.563 19.3502 10.5509 19.4485 10.5583C19.5468 10.5657 19.6426 10.5924 19.7306 10.6368C19.8186 10.6813 19.8969 10.7426 19.9612 10.8173C20.0255 10.8921 20.0744 10.9787 20.1052 11.0723C20.1359 11.166 20.148 11.2647 20.1406 11.363C20.1332 11.4613 20.1065 11.5572 20.0621 11.6451C20.0176 11.7331 19.9563 11.8115 19.8816 11.8757C19.8068 11.94 19.7202 11.9889 19.6266 12.0197L18.4678 12.3947L19.1794 13.3791ZM12.4294 13.3791C12.4873 13.4591 12.5289 13.5497 12.5518 13.6458C12.5747 13.7419 12.5784 13.8416 12.5628 13.9391C12.5472 14.0367 12.5125 14.1302 12.4607 14.2143C12.4089 14.2985 12.3411 14.3716 12.2611 14.4295C12.1811 14.4875 12.0904 14.5291 11.9943 14.5519C11.8982 14.5748 11.7986 14.5786 11.701 14.563C11.6035 14.5473 11.5099 14.5126 11.4258 14.4609C11.3417 14.4091 11.2686 14.3413 11.2106 14.2612L10.5 13.2759L9.78469 14.2612C9.6677 14.4229 9.49131 14.5314 9.29431 14.563C9.0973 14.5945 8.89583 14.5465 8.73422 14.4295C8.5726 14.3125 8.46408 14.1361 8.43252 13.9391C8.40096 13.7421 8.44895 13.5407 8.56594 13.3791L9.28219 12.3947L8.12344 12.0197C8.02981 11.9889 7.94316 11.94 7.86844 11.8757C7.79371 11.8115 7.73238 11.7331 7.68794 11.6451C7.59819 11.4675 7.58268 11.2614 7.64484 11.0723C7.67562 10.9787 7.72454 10.8921 7.78881 10.8173C7.85307 10.7426 7.93143 10.6813 8.0194 10.6368C8.19706 10.5471 8.4031 10.5316 8.59219 10.5938L9.75 10.9688V9.75C9.75 9.55109 9.82902 9.36032 9.96967 9.21967C10.1103 9.07902 10.3011 9 10.5 9C10.6989 9 10.8897 9.07902 11.0303 9.21967C11.171 9.36032 11.25 9.55109 11.25 9.75V10.9688L12.4078 10.5938C12.5014 10.563 12.6002 10.5509 12.6985 10.5583C12.7968 10.5657 12.8926 10.5924 12.9806 10.6368C13.0686 10.6813 13.1469 10.7426 13.2112 10.8173C13.2755 10.8921 13.3244 10.9787 13.3552 11.0723C13.3859 11.166 13.398 11.2647 13.3906 11.363C13.3832 11.4613 13.3565 11.5572 13.3121 11.6451C13.2676 11.7331 13.2063 11.8115 13.1316 11.8757C13.0568 11.94 12.9702 11.9889 12.8766 12.0197L11.7178 12.3947L12.4294 13.3791ZM6 8.25V15.75C6 15.9489 5.92098 16.1397 5.78033 16.2803C5.63968 16.421 5.44891 16.5 5.25 16.5C5.05109 16.5 4.86032 16.421 4.71967 16.2803C4.57902 16.1397 4.5 15.9489 4.5 15.75V8.25C4.5 8.05109 4.57902 7.86032 4.71967 7.71967C4.86032 7.57902 5.05109 7.5 5.25 7.5C5.44891 7.5 5.63968 7.57902 5.78033 7.71967C5.92098 7.86032 6 8.05109 6 8.25Z" fill="black"/>
</svg>
