<svg width="24" height="24" viewBox="0 0 24 24" fill="none" xmlns="http://www.w3.org/2000/svg">
<g clip-path="url(#clip0_37019_5162)">
<path d="M24 12.7498C24 12.9488 23.921 13.1395 23.7804 13.2802C23.6397 13.4208 23.4489 13.4998 23.25 13.4998H21.75V14.9998C21.75 15.1988 21.671 15.3895 21.5304 15.5302C21.3897 15.6708 21.1989 15.7498 21 15.7498C20.8011 15.7498 20.6104 15.6708 20.4697 15.5302C20.329 15.3895 20.25 15.1988 20.25 14.9998V13.4998H18.75C18.5511 13.4998 18.3604 13.4208 18.2197 13.2802C18.079 13.1395 18 12.9488 18 12.7498C18 12.5509 18.079 12.3602 18.2197 12.2195C18.3604 12.0789 18.5511 11.9998 18.75 11.9998H20.25V10.4998C20.25 10.3009 20.329 10.1102 20.4697 9.96951C20.6104 9.82886 20.8011 9.74984 21 9.74984C21.1989 9.74984 21.3897 9.82886 21.5304 9.96951C21.671 10.1102 21.75 10.3009 21.75 10.4998V11.9998H23.25C23.4489 11.9998 23.6397 12.0789 23.7804 12.2195C23.921 12.3602 24 12.5509 24 12.7498ZM13.5 14.7823C14.6757 14.0501 15.581 12.9548 16.0788 11.6622C16.5766 10.3697 16.6399 8.95013 16.259 7.61839C15.8782 6.28666 15.074 5.11518 13.9682 4.2812C12.8623 3.44721 11.5148 2.99609 10.1297 2.99609C8.74461 2.99609 7.39718 3.44721 6.29128 4.2812C5.18539 5.11518 4.3812 6.28666 4.00039 7.61839C3.61958 8.95013 3.68286 10.3697 4.18066 11.6622C4.67846 12.9548 5.58369 14.0501 6.75941 14.7823C4.82347 15.4161 3.08159 16.6002 1.68097 18.267C1.58927 18.376 1.53051 18.5089 1.51155 18.65C1.4926 18.7912 1.51423 18.9349 1.57393 19.0642C1.63362 19.1935 1.72891 19.3032 1.84864 19.3803C1.96837 19.4575 2.1076 19.4989 2.25003 19.4998H18C18.1429 19.5 18.2829 19.4593 18.4035 19.3826C18.524 19.3058 18.6202 19.1963 18.6806 19.0667C18.7409 18.9372 18.7631 18.7931 18.7443 18.6514C18.7256 18.5098 18.6667 18.3764 18.5747 18.267C17.1732 16.6002 15.4313 15.4161 13.5 14.7823Z" fill="black"/>
</g>
<defs>
<clipPath id="clip0_37019_5162">
<rect width="24" height="24" fill="white"/>
</clipPath>
</defs>
</svg>
